<?xml version="1.0" encoding="UTF-8"?>
<svg xmlns="http://www.w3.org/2000/svg" xmlns:xlink="http://www.w3.org/1999/xlink" width="60px" height="px" viewBox="0 0 60 60" version="1.1">
<g id="surface1">
<path style=" stroke:none;fill-rule:nonzero;fill:rgb(0%,0%,0%);fill-opacity:1;" d="M 50.570312 30.382812 L 29.617188 30.382812 L 29.617188 9.429688 C 29.617188 9.171875 29.40625 8.960938 29.148438 8.960938 L 27.625 8.960938 C 21.417969 8.953125 15.460938 11.417969 11.074219 15.8125 C 8.9375 17.945312 7.230469 20.472656 6.058594 23.257812 C 4.839844 26.144531 4.21875 29.210938 4.21875 32.375 C 4.21875 35.539062 4.839844 38.59375 6.058594 41.484375 C 7.234375 44.265625 8.921875 46.773438 11.074219 48.925781 C 13.226562 51.078125 15.726562 52.765625 18.515625 53.941406 C 21.398438 55.164062 24.5 55.792969 27.632812 55.789062 C 33.84375 55.792969 39.796875 53.328125 44.183594 48.929688 C 46.335938 46.78125 48.023438 44.28125 49.203125 41.492188 C 50.425781 38.605469 51.050781 35.503906 51.046875 32.375 L 51.046875 30.851562 C 51.039062 30.59375 50.828125 30.382812 50.570312 30.382812 Z M 55.722656 27.128906 L 55.570312 25.476562 C 55.070312 20.085938 52.679688 15 48.828125 11.164062 C 44.972656 7.3125 39.898438 4.933594 34.476562 4.429688 L 32.820312 4.277344 C 32.542969 4.253906 32.308594 4.464844 32.308594 4.742188 L 32.308594 27.222656 C 32.308594 27.480469 32.519531 27.691406 32.777344 27.691406 L 55.253906 27.632812 C 55.53125 27.625 55.746094 27.398438 55.722656 27.128906 Z M 55.722656 27.128906 "/>
</g>
</svg>
