<?xml version="1.0" encoding="UTF-8"?>
<svg xmlns="http://www.w3.org/2000/svg" xmlns:xlink="http://www.w3.org/1999/xlink" width="60px" height="px" viewBox="0 0 60 60" version="1.1">
<g id="surface1">
<path style=" stroke:none;fill-rule:nonzero;fill:rgb(0%,0%,0%);fill-opacity:1;" d="M 28.710938 15.679688 C 27.234375 15.890625 25.007812 16.875 24.164062 17.671875 C 23.882812 17.929688 23.742188 17.976562 22.734375 18.023438 C 20.789062 18.140625 19.453125 18.5625 18.070312 19.40625 C 17.484375 19.757812 17.273438 19.828125 16.335938 19.945312 C 14.460938 20.15625 12.703125 20.859375 11.53125 21.890625 C 11.109375 22.265625 10.734375 22.453125 9.960938 22.710938 C 9.421875 22.898438 8.765625 23.132812 8.507812 23.273438 C 7.664062 23.695312 6.46875 24.585938 5.835938 25.242188 C 5.296875 25.804688 5.226562 25.945312 5.226562 26.34375 C 5.226562 26.976562 5.695312 27.445312 6.304688 27.445312 C 6.703125 27.445312 6.84375 27.375 7.664062 26.601562 C 10.828125 23.695312 15.492188 23.742188 20.671875 26.789062 C 21.351562 27.1875 21.914062 27.445312 22.125 27.445312 C 22.546875 27.445312 22.921875 27.164062 23.109375 26.71875 C 23.273438 26.296875 23.203125 25.945312 22.898438 25.59375 C 22.59375 25.242188 21.09375 24.351562 20.015625 23.859375 C 18.960938 23.367188 16.804688 22.640625 16.101562 22.546875 C 15.210938 22.40625 15.679688 22.242188 17.109375 22.195312 C 18.5625 22.148438 19.6875 22.265625 21.234375 22.664062 C 23.695312 23.296875 26.273438 24.46875 29.15625 26.203125 C 30.210938 26.859375 30.375 26.929688 30.75 26.859375 C 31.640625 26.71875 31.96875 25.6875 31.359375 25.03125 C 30.9375 24.585938 28.945312 23.390625 27.09375 22.5 C 25.265625 21.609375 24.375 21.257812 22.875 20.789062 C 21.5625 20.390625 21.609375 20.296875 23.179688 20.296875 C 26.976562 20.296875 32.4375 22.710938 37.570312 26.625 C 38.671875 27.46875 39.070312 27.609375 39.585938 27.328125 C 39.867188 27.164062 40.125 26.648438 40.125 26.179688 C 40.125 25.804688 40.125 25.804688 41.085938 25.40625 C 42.914062 24.65625 44.53125 24.445312 46.265625 24.726562 C 47.976562 25.03125 49.40625 25.6875 50.90625 26.882812 C 51.375 27.257812 51.703125 27.421875 51.914062 27.421875 C 52.804688 27.421875 53.34375 26.625 52.96875 25.828125 C 52.710938 25.265625 50.507812 23.789062 49.148438 23.25 C 48.820312 23.109375 48.375 22.851562 48.164062 22.640625 C 47.085938 21.609375 44.695312 20.484375 42.867188 20.15625 C 42.421875 20.0625 42.09375 19.945312 41.90625 19.757812 C 40.875 18.773438 38.367188 17.835938 36.773438 17.835938 C 36.234375 17.835938 36.117188 17.789062 35.625 17.390625 C 34.875 16.804688 33.445312 16.125 32.390625 15.84375 C 31.335938 15.632812 29.671875 15.515625 28.710938 15.679688 Z M 31.640625 18.023438 C 31.96875 18.117188 32.390625 18.234375 32.578125 18.304688 L 32.90625 18.421875 L 32.085938 18.820312 C 31.617188 19.054688 31.101562 19.359375 30.890625 19.5 L 30.515625 19.757812 L 29.320312 19.3125 C 28.664062 19.078125 27.890625 18.796875 27.609375 18.726562 C 27.328125 18.65625 27.09375 18.539062 27.09375 18.515625 C 27.09375 18.492188 27.445312 18.328125 27.890625 18.1875 C 28.3125 18.070312 28.734375 17.953125 28.804688 17.929688 C 29.15625 17.8125 31.125 17.882812 31.640625 18.023438 Z M 37.195312 20.132812 C 37.476562 20.179688 37.710938 20.25 37.710938 20.273438 C 37.710938 20.320312 37.359375 20.460938 36.914062 20.601562 C 36.46875 20.742188 35.71875 21.046875 35.25 21.304688 L 34.359375 21.726562 L 33.820312 21.421875 C 32.859375 20.90625 32.859375 20.882812 33.773438 20.554688 C 35.0625 20.109375 36.046875 19.992188 37.195312 20.132812 Z M 42.046875 22.335938 C 42.445312 22.359375 42.75 22.429688 42.703125 22.476562 C 42.65625 22.523438 42.257812 22.664062 41.835938 22.757812 C 40.921875 22.992188 39.65625 23.53125 38.859375 24 L 38.296875 24.328125 L 37.546875 23.789062 C 37.125 23.484375 36.773438 23.203125 36.75 23.15625 C 36.632812 22.804688 39.796875 22.125 40.96875 22.242188 C 41.132812 22.242188 41.625 22.289062 42.046875 22.335938 Z M 42.046875 22.335938 "/>
<path style=" stroke:none;fill-rule:nonzero;fill:rgb(0%,0%,0%);fill-opacity:1;" d="M 2.414062 28.851562 C 2.789062 33.164062 5.578125 36.65625 10.617188 39.210938 C 12.796875 40.3125 15.28125 41.203125 17.929688 41.8125 L 18.773438 42 L 18.773438 42.46875 C 18.773438 43.265625 19.195312 43.875 20.015625 44.203125 C 20.367188 44.34375 21.632812 44.367188 30.28125 44.367188 C 38.929688 44.367188 40.195312 44.34375 40.546875 44.203125 C 41.296875 43.875 41.789062 43.265625 41.789062 42.5625 C 41.789062 42.210938 41.835938 42.164062 42.09375 42.09375 C 47.296875 40.898438 51.140625 39.046875 53.929688 36.328125 C 56.15625 34.171875 57.328125 31.78125 57.585938 28.804688 L 57.65625 27.960938 L 16.453125 27.960938 L 16.453125 34.570312 L 16.078125 34.945312 C 15.632812 35.390625 15.257812 35.4375 14.71875 35.109375 C 14.53125 34.992188 14.34375 34.875 14.34375 34.875 C 14.34375 34.851562 14.296875 33.304688 14.25 31.429688 L 14.203125 28.007812 L 13.125 28.007812 L 13.078125 32.507812 L 13.007812 37.03125 L 12.703125 37.289062 C 12.257812 37.664062 11.625 37.664062 11.179688 37.242188 L 10.851562 36.914062 L 10.851562 27.960938 L 2.34375 27.960938 Z M 2.414062 28.851562 "/>
</g>
</svg>
