<?xml version="1.0" encoding="utf-8"?>
<!-- Svg Vector Icons : http://www.onlinewebfonts.com/icon -->
<!DOCTYPE svg PUBLIC "-//W3C//DTD SVG 1.1//EN" "http://www.w3.org/Graphics/SVG/1.1/DTD/svg11.dtd">
<svg version="1.1" xmlns="http://www.w3.org/2000/svg" xmlns:xlink="http://www.w3.org/1999/xlink" x="0px" y="0px" viewBox="0 0 256 256" enable-background="new 0 0 256 256" xml:space="preserve">
<metadata> Svg Vector Icons : http://www.onlinewebfonts.com/icon </metadata>
<g><g><g><path fill="#000000" d="M122.5,66.9c-6.3,0.9-15.8,5.1-19.4,8.5c-1.2,1.1-1.8,1.3-6.1,1.5c-8.3,0.5-14,2.3-19.9,5.9c-2.5,1.5-3.4,1.8-7.4,2.3c-8,0.9-15.5,3.9-20.5,8.3c-1.8,1.6-3.4,2.4-6.7,3.5c-2.3,0.8-5.1,1.8-6.2,2.4c-3.6,1.8-8.7,5.6-11.4,8.4c-2.3,2.4-2.6,3-2.6,4.7c0,2.7,2,4.7,4.6,4.7c1.7,0,2.3-0.3,5.8-3.6c13.5-12.4,33.4-12.2,55.5,0.8c2.9,1.7,5.3,2.8,6.2,2.8c1.8,0,3.4-1.2,4.2-3.1c0.7-1.8,0.4-3.3-0.9-4.8c-1.3-1.5-7.7-5.3-12.3-7.4c-4.5-2.1-13.7-5.2-16.7-5.6c-3.8-0.6-1.8-1.3,4.3-1.5c6.2-0.2,11,0.3,17.6,2c10.5,2.7,21.5,7.7,33.8,15.1c4.5,2.8,5.2,3.1,6.8,2.8c3.8-0.6,5.2-5,2.6-7.8c-1.8-1.9-10.3-7-18.2-10.8c-7.8-3.8-11.6-5.3-18-7.3c-5.6-1.7-5.4-2.1,1.3-2.1c16.2,0,39.5,10.3,61.4,27c4.7,3.6,6.4,4.2,8.6,3c1.2-0.7,2.3-2.9,2.3-4.9c0-1.6,0-1.6,4.1-3.3c7.8-3.2,14.7-4.1,22.1-2.9c7.3,1.3,13.4,4.1,19.8,9.2c2,1.6,3.4,2.3,4.3,2.3c3.8,0,6.1-3.4,4.5-6.8c-1.1-2.4-10.5-8.7-16.3-11c-1.4-0.6-3.3-1.7-4.2-2.6c-4.6-4.4-14.8-9.2-22.6-10.6c-1.9-0.4-3.3-0.9-4.1-1.7c-4.4-4.2-15.1-8.2-21.9-8.2c-2.3,0-2.8-0.2-4.9-1.9c-3.2-2.5-9.3-5.4-13.8-6.6C133.7,66.7,126.6,66.2,122.5,66.9z M135,76.9c1.4,0.4,3.2,0.9,4,1.2l1.4,0.5l-3.5,1.7c-2,1-4.2,2.3-5.1,2.9l-1.6,1.1l-5.1-1.9c-2.8-1-6.1-2.2-7.3-2.5c-1.2-0.3-2.2-0.8-2.2-0.9s1.5-0.8,3.4-1.4c1.8-0.5,3.6-1,3.9-1.1C124.4,76,132.8,76.3,135,76.9z M158.7,85.9c1.2,0.2,2.2,0.5,2.2,0.6c0,0.2-1.5,0.8-3.4,1.4c-1.9,0.6-5.1,1.9-7.1,3l-3.8,1.8l-2.3-1.3c-4.1-2.2-4.1-2.3-0.2-3.7C149.6,85.8,153.8,85.3,158.7,85.9z M179.4,95.3c1.7,0.1,3,0.4,2.8,0.6c-0.2,0.2-1.9,0.8-3.7,1.2c-3.9,1-9.3,3.3-12.7,5.3l-2.4,1.4l-3.2-2.3c-1.8-1.3-3.3-2.5-3.4-2.7c-0.5-1.5,13-4.4,18-3.9C175.5,94.9,177.6,95.1,179.4,95.3z"/><path fill="#000000" d="M10.3,123.1c1.6,18.4,13.5,33.3,35,44.2c9.3,4.7,19.9,8.5,31.2,11.1l3.6,0.8v2c0,3.4,1.8,6,5.3,7.4c1.5,0.6,6.9,0.7,43.8,0.7c36.9,0,42.3-0.1,43.8-0.7c3.2-1.4,5.3-4,5.3-7c0-1.5,0.2-1.7,1.3-2c22.2-5.1,38.6-13,50.5-24.6c9.5-9.2,14.5-19.4,15.6-32.1l0.3-3.6h-87.9H70.2v14.1v14.1l-1.6,1.6c-1.9,1.9-3.5,2.1-5.8,0.7c-0.8-0.5-1.6-1-1.6-1c0-0.1-0.2-6.7-0.4-14.7l-0.2-14.6h-2.3h-2.3l-0.2,19.2L55.5,158l-1.3,1.1c-1.9,1.6-4.6,1.6-6.5-0.2l-1.4-1.4v-19.1v-19.1H28.2H10L10.3,123.1z"/></g></g></g>
</svg>